<?xml version="1.0" encoding="UTF-8" standalone="no"?>
<svg
   id="Camada_1"
   data-name="Camada 1"
   viewBox="0 0 48.42305 73.551865"
   version="1.1"
   sodipodi:docname="logo.svg"
   inkscape:version="1.1.2 (0a00cf5339, 2022-02-04)"
   width="48.42305"
   height="73.551865"
   xmlns:inkscape="http://www.inkscape.org/namespaces/inkscape"
   xmlns:sodipodi="http://sodipodi.sourceforge.net/DTD/sodipodi-0.dtd"
   xmlns="http://www.w3.org/2000/svg"
   xmlns:svg="http://www.w3.org/2000/svg"
   xmlns:rdf="http://www.w3.org/1999/02/22-rdf-syntax-ns#"
   xmlns:cc="http://creativecommons.org/ns#"
   xmlns:dc="http://purl.org/dc/elements/1.1/">
  <sodipodi:namedview
     id="namedview29"
     pagecolor="#000089"
     bordercolor="#666666"
     borderopacity="1.0"
     inkscape:pageshadow="2"
     inkscape:pageopacity="0"
     inkscape:pagecheckerboard="0"
     showgrid="false"
     inkscape:zoom="8.6888889"
     inkscape:cx="24.283887"
     inkscape:cy="35.332481"
     inkscape:window-width="1717"
     inkscape:window-height="1001"
     inkscape:window-x="26"
     inkscape:window-y="23"
     inkscape:window-maximized="0"
     inkscape:current-layer="Camada_1"
     fit-margin-top="0"
     fit-margin-left="0"
     fit-margin-right="0"
     fit-margin-bottom="0" />
  <defs
     id="defs4">
    <style
       id="style2">.cls-1{fill:#fff;}.cls-1,.cls-2,.cls-3,.cls-4,.cls-5,.cls-6,.cls-7,.cls-8{fill-rule:evenodd;}.cls-2{fill:#231f20;}.cls-3{fill:#d09910;}.cls-4{fill:#a46e08;}.cls-5{fill:#005387;}.cls-6{fill:#e6e7e8;}.cls-7{fill:#bcbec0;}.cls-8{fill:#f58220;}</style>
  </defs>
  <title
     id="title6">Brasão e monograma - Arquivo Ai</title>
  <path
     class="cls-1"
     d="m 33.536625,67.590854 v 1.72 a 1.55,1.55 0 0 0 -0.56,-0.28 c -0.38,-0.06 -0.86,0 -1.37,-0.08 -0.27,0.51 -0.18,1 0.69,1.37 a 0.92,0.92 0 0 1 0.52,1.21 1,1 0 0 0 0,0.47 1,1 0 0 0 0.79,0.44 1.4,1.4 0 0 0 2.65,0.19 c 0.67,0 0.93,-0.26 0.94,-0.7 a 1.64,1.64 0 0 1 0,-0.66 0.94,0.94 0 0 1 0.45,-0.58 2.59,2.59 0 0 1 0.45,-0.19 0.85,0.85 0 0 0 0.59,-1.23 c -0.25,0 -1.17,-0.06 -1.37,0 a 1.67,1.67 0 0 0 -0.58,0.22 v -1.12 0 c 3.51,0.65 6.55,0.29 8.43,-1.55 2.7,-3.19 3.12,-8.38 3.23,-9.17 0.3,-2.13 -2,-3.39 -4.58,-4.19 0.2,-1.34 2.2,-3.9 2.89,-5.41 a 11,11 0 0 0 -6.78,1 l 3.14,-28.52 h -2.92 l 0.11,-2.14 h 0.54 a 0.62,0.62 0 0 0 0.59,-0.57 v -0.61 a 5.31,5.31 0 0 0 0.7,-0.12 1.07,1.07 0 0 0 0.76,-0.61 4.52,4.52 0 0 0 0,-1.64 0.87,0.87 0 0 0 -0.49,-0.68 2.62,2.62 0 0 0 -1,-0.24 v -0.58 c 0,-0.06 0,-0.6 -0.83,-0.57 h -6.03 a 0.65,0.65 0 0 0 -0.7,0.68 v 0.45 a 4.43,4.43 0 0 0 -1.09,0.22 1,1 0 0 0 -0.57,0.84 5.29,5.29 0 0 0 0,1.37 1,1 0 0 0 0.82,0.76 3.87,3.87 0 0 0 0.81,0.12 v 0.62 a 0.64,0.64 0 0 0 0.6,0.56 h 0.5 v 2.16 h -7.94 v -2.16 h 0.43 a 0.62,0.62 0 0 0 0.59,-0.57 v -0.61 a 7,7 0 0 0 0.79,-0.12 1.07,1.07 0 0 0 0.75,-0.61 4.52,4.52 0 0 0 0,-1.64 0.91,0.91 0 0 0 -0.5,-0.68 3.08,3.08 0 0 0 -1.08,-0.24 v -0.58 c 0,-0.06 -0.06,-0.6 -0.84,-0.57 h -5.72 c -0.78,0 -0.84,0.51 -0.84,0.57 v 0.58 a 3.08,3.08 0 0 0 -1.08,0.24 0.91,0.91 0 0 0 -0.5,0.68 4.52,4.52 0 0 0 0,1.64 1.07,1.07 0 0 0 0.75,0.61 7,7 0 0 0 0.79,0.12 v 0.61 a 0.62,0.62 0 0 0 0.59,0.57 h 0.43 v 2.16 h -7.82 l -0.05,-2.16 h 0.5 a 0.64,0.64 0 0 0 0.6,-0.56 v -0.62 a 3.87,3.87 0 0 0 0.81,-0.12 1,1 0 0 0 0.82,-0.76 5.29,5.29 0 0 0 0,-1.37 1,1 0 0 0 -0.57,-0.84 4.43,4.43 0 0 0 -1.09,-0.22 v -0.45 a 0.65,0.65 0 0 0 -0.7,-0.68 H 7.9266248 c -0.78,0 -0.83,0.51 -0.83,0.57 v 0.58 a 2.62,2.62 0 0 0 -1,0.24 0.87,0.87 0 0 0 -0.49,0.68 4.52,4.52 0 0 0 0,1.64 1.07,1.07 0 0 0 0.76,0.61 5.31,5.31 0 0 0 0.7,0.12 v 0.61 a 0.62,0.62 0 0 0 0.59,0.57 h 0.6 l 0.11,2.14 h -2.92 l 3.05,28.54 a 11,11 0 0 0 -6.78,-1 c 0.69,1.46 2.69,4.02 2.89,5.36 -2.6,0.8 -4.87999998,2.1 -4.57999998,4.19 0.11,0.79 0.53,6 3.22999998,9.17 1.88,1.84 4.92,2.2 8.4300002,1.55 v 0 1.12 a 1.67,1.67 0 0 0 -0.58,-0.22 c -0.2,0 -1.1200002,0 -1.3700002,0 a 0.85,0.85 0 0 0 0.6700002,1.29 2.59,2.59 0 0 1 0.45,0.19 0.94,0.94 0 0 1 0.45,0.58 1.64,1.64 0 0 1 0,0.66 c 0,0.44 0.27,0.68 0.94,0.7 a 1.4,1.4 0 0 0 2.66,-0.16 1,1 0 0 0 0.79,-0.44 1,1 0 0 0 0,-0.47 0.92,0.92 0 0 1 0.56,-1.27 c 0.87,-0.37 1,-0.86 0.69,-1.37 -0.51,0 -1,0 -1.37,0.08 a 1.55,1.55 0 0 0 -0.56,0.28 v -1.72 a 45.66,45.66 0 0 1 7.58,-0.86 v 1.56 c 0,-0.08 -0.14,-0.23 -0.56,-0.32 -0.21,0 -1.15,0 -1.4,0 a 0.8,0.8 0 0 0 0.46,1.23 4.46,4.46 0 0 1 0.46,0.22 1,1 0 0 1 0.44,0.58 1.73,1.73 0 0 1 0,0.66 c 0,0.44 0.23,0.69 0.9,0.75 a 1.27,1.27 0 0 0 0.24,0.48 1.42,1.42 0 0 0 1.07,0.47 h 0.18 a 1.42,1.42 0 0 0 1.07,-0.47 1.27,1.27 0 0 0 0.24,-0.48 c 0.67,-0.06 0.92,-0.31 0.9,-0.75 a 1.73,1.73 0 0 1 0,-0.66 1,1 0 0 1 0.44,-0.58 4.46,4.46 0 0 1 0.46,-0.22 0.8,0.8 0 0 0 0.46,-1.23 c -0.25,0 -1.19,0 -1.4,0 -0.42,0.09 -0.52,0.24 -0.56,0.32 v -1.56 a 45.66,45.66 0 0 1 7.58,0.86 z m 4.17,-12 a 20.64,20.64 0 0 1 3.26,2.25 4.08,4.08 0 0 1 1.48,2.36 19.19,19.19 0 0 1 -5,-0.24 l 0.3,-4.37 z m -26.9,0 0.3,4.37 a 19.19,19.19 0 0 1 -5.0000002,0.24 4.08,4.08 0 0 1 1.48,-2.36 20.64,20.64 0 0 1 3.2200002,-2.31 z m 3.87,1.43 a 20.3,20.3 0 0 0 6.24,1.58 c -2.21,0.24 -4.19,0.51 -6.18,0.83 z m 19.16,0 -0.06,2.41 c -2,-0.32 -4,-0.59 -6.18,-0.83 a 20.3,20.3 0 0 0 6.24,-1.58 z m 9.15,-56.92999978 c -1.44,0.74 -3.28,0.09 -4.36,1.59999998 -0.68,0.86 -0.94,2.56 -2,3 -1.27,0.68 -3.55,1.41 -3.78,2.94 a 3.89,3.89 0 0 0 1.88,4.1299998 c 0.1,0.09 0.39,0 0.27,-0.29 a 3.34,3.34 0 0 1 0.26,-2.6299998 3.34,3.34 0 0 0 1,2.4699998 0.21,0.21 0 0 0 0.27,0 0.23,0.23 0 0 0 0.08,-0.24 5.12,5.12 0 0 1 1.5,-4.1599998 5.37,5.37 0 0 0 0.46,4.3099998 0.21,0.21 0 0 0 0.4,0 1.48,1.48 0 0 0 0,-0.23 3.4,3.4 0 0 1 1.29,-2.3499998 3.55,3.55 0 0 0 -0.08,2.9999998 0.37,0.37 0 0 0 0.16,0.18 c 0,0 0.23,0 0.35,-0.06 a 1.64,1.64 0 0 0 1.25,-1.29 5.93,5.93 0 0 1 1,-2.5399998 c 0.87,-1.64 0.27,-2.74 0,-4.36 a 0.21,0.21 0 0 0 -0.41,0 c 0,0.17 -0.44,2.24 -2.25,2.56 a 3.89,3.89 0 0 0 1,-2.13 c 0.32,-1.5 1.21,-2.33 2,-3.52999998 0.33,-0.4 0,-0.6 -0.28,-0.38 z m -27,0 c -1.43,0.74 -3.28,0.09 -4.35,1.59999998 -0.69,0.86 -1,2.56 -2.0000002,3 -1.28,0.68 -3.55,1.41 -3.78,2.94 a 3.87,3.87 0 0 0 1.88,4.1299998 c 0.1,0.09 0.38,0 0.26,-0.29 a 3.42,3.42 0 0 1 0.26,-2.6299998 3.35,3.35 0 0 0 1,2.4699998 0.2,0.2 0 0 0 0.26,0 0.21,0.21 0 0 0 0.08,-0.24 5.13,5.13 0 0 1 1.5100002,-4.1599998 5.33,5.33 0 0 0 0.46,4.3099998 0.21,0.21 0 0 0 0.39,0 c 0,0 0,-0.15 0,-0.23 a 3.37,3.37 0 0 1 1.3,-2.3499998 3.58,3.58 0 0 0 -0.09,2.9999998 c 0.05,0.06 0.05,0.12 0.17,0.18 0.12,0.06 0.23,0 0.35,-0.06 a 1.63,1.63 0 0 0 1.24,-1.29 6.1,6.1 0 0 1 1,-2.5399998 c 0.86,-1.64 0.27,-2.74 0,-4.36 0,-0.2 -0.32,-0.28 -0.4,0 -0.08,0.28 -0.45,2.24 -2.27,2.56 a 4,4 0 0 0 1,-2.13 c 0.32,-1.5 1.2,-2.33 2,-3.52999998 0.32,-0.4 0,-0.6 -0.29,-0.38 z m 13.33,0 c -1.43,0.74 -3.28,0.09 -4.35,1.59999998 -0.69,0.86 -0.95,2.56 -2,3 -1.24,0.72 -3.51,1.45 -3.71,2.98 a 3.89,3.89 0 0 0 1.89,4.1299998 c 0.1,0.09 0.38,0 0.26,-0.29 a 3.42,3.42 0 0 1 0.21,-2.6699998 3.31,3.31 0 0 0 1,2.4699998 0.2,0.2 0 0 0 0.26,0 0.21,0.21 0 0 0 0.08,-0.24 5.13,5.13 0 0 1 1.51,-4.1599998 5.29,5.29 0 0 0 0.46,4.3099998 0.21,0.21 0 0 0 0.39,0 c 0,0 0,-0.15 0,-0.23 a 3.33,3.33 0 0 1 1.32,-2.3499998 3.58,3.58 0 0 0 -0.09,2.9999998 c 0.05,0.06 0.05,0.12 0.17,0.18 0.12,0.06 0.23,0 0.35,-0.06 a 1.63,1.63 0 0 0 1.19,-1.29 5.84,5.84 0 0 1 1,-2.5399998 c 0.86,-1.64 0.27,-2.74 0,-4.36 0,-0.2 -0.32,-0.28 -0.4,0 -0.08,0.28 -0.45,2.24 -2.26,2.56 a 4,4 0 0 0 1.05,-2.13 c 0.31,-1.5 1.2,-2.33 2,-3.52999998 0.29,-0.4 -0.07,-0.6 -0.32,-0.38 z"
     id="path8" />
  <path
     class="cls-3"
     d="m 40.786625,13.360854 h -6.35 -0.08 v 0.5 c 2,-0.06 4.32,-0.06 6.51,0 v -0.48 c 0,0 0,-0.05 -0.08,-0.05 z m -29.18,41.64 -0.25,0.21 0.32,4.67 2.52,-0.35 -0.07,-2.8 c -0.794992,-0.400305 -1.545772,-0.88295 -2.24,-1.44 -0.104652,-0.08469 -0.20479,-0.174817 -0.3,-0.27 z m 25.35,0 0.3,0.23 -0.35,4.61 -2.56,-0.31 0.07,-2.79 c 0.909252,-0.444357 1.756445,-1.00579 2.52,-1.67 z m 2.8,-36.6 h -4.28 l -0.06,2.13 h 4.19 l 0.15,-2.17 z m -17.61,0 h 4.31 l -0.05,2.13 h -4.21 l -0.05,-2.17 z m -13.3900002,0 h 4.2800002 l 0.06,2.13 H 8.9066248 l -0.15,-2.15 z m -0.92,-0.58 h 6.3400002 0.08 v -0.5 c -2,0.05 -4.3200002,0.06 -6.5100002,0 v 0.48 c 0,0 0,0.05 0.09,0.05 z m 13.2200002,0 h 6.35 0.08 v -0.5 c -2,0.05 -4.33,0.06 -6.51,0 v 0.48 c 0,0 0,0.05 0.08,0.05 z m 19.74,0 h -6.35 c 0,0 -0.08,0 -0.07,-0.05 v -0.49 c 2,0.05 4.32,0.05 6.5,0 v 0.48 c 0,0 0,0.05 -0.08,0.06 z m -1.54,-3.41 h -3.52 c -0.870824,-0.02307 -1.741782,0.04057 -2.6,0.19 -0.43,0.1 -0.41,0.41 -0.42,0.61 -0.02007,0.286315 -0.02007,0.573685 0,0.86 0,0.36 0.19,0.46 0.66,0.56 0.777493,0.0782 1.5586,0.114916 2.34,0.11 h 3.54 c 0.821499,0.01525 1.64314,-0.02149 2.46,-0.11 0.62,-0.12 0.66,-0.22 0.7,-0.55 0.04,-0.33 0,-0.63 0,-0.95 0,-0.32 -0.14,-0.5 -0.6,-0.59 -0.849323,-0.102215 -1.704691,-0.145652 -2.56,-0.13 z m -16.59,0 h 3.46 c 0.873724,-0.02219 1.747594,0.03808 2.61,0.18 0.42,0.1 0.41,0.41 0.42,0.61 0.01,0.2 0,0.54 0,0.86 0,0.32 -0.2,0.47 -0.66,0.56 -0.46,0.09 -1.71,0.11 -2.34,0.12 h -3.61 c -0.821708,0.01182 -1.643344,-0.02826 -2.46,-0.12 -0.62,-0.12 -0.66,-0.21 -0.71,-0.54 v -1 c 0,-0.35 0.14,-0.5 0.61,-0.58 0.872057,-0.110474 1.751299,-0.153935 2.63,-0.13 z m -13.3000002,0 h 3.4600002 c 0.873724,-0.02219 1.747594,0.03808 2.61,0.18 0.43,0.1 0.41,0.41 0.42,0.61 0.01512,0.286467 0.01512,0.573533 0,0.86 0,0.36 -0.19,0.47 -0.66,0.56 -0.47,0.09 -1.71,0.11 -2.34,0.12 H 9.2566248 c -0.8217048,0.01161 -1.6433265,-0.02847 -2.46,-0.12 -0.62,-0.12 -0.66,-0.21 -0.7,-0.54 -0.04,-0.33 0,-0.64 0,-1 0,-0.36 0.14,-0.5 0.6,-0.58 0.8720568,-0.110474 1.7512994,-0.153935 2.63,-0.13 z m -1.53,-1.07 h 6.3400002 0.08 v 0.49 H 7.7466248 v -0.48 h 0.09 z m 13.2400002,0 h 6.35 0.07 v 0.49 h -6.5 v -0.48 c 0,0 0.03,-0.01 0.08,-0.01 z"
     id="path12"
     sodipodi:nodetypes="cccccccccccccccccccccccccccccccccccccccccccccccccccccccccccccccccccccccccsscccccsssccccsccccccccscccsscccccccccccscccccs"
     style="fill:#ffffff" />
  <path
     class="cls-4"
     d="m 39.256625,18.730854 h -0.7 l -0.07,1.8 h 0.77 z m -2.6,36.54 c -0.14,0.1 -0.27,0.22 -0.42,0.32 l -0.18,4.16 0.4,0.06 z m -24.77,0 c 0.14,0.1 0.26,0.22 0.42,0.33 l 0.18,4.16 -0.4,0.06 z m 0.81,0.6 0.41,0.27 0.15,3.51 -0.4,0.06 z m 0.72,0.46 0.42,0.23 0.13,3 -0.41,0.06 -0.14,-3.27 z m 21.7,0 -0.41,0.23 -0.13,3 0.4,0.06 0.14,-3.27 z m 0.73,-0.45 c -0.14,0.1 -0.27,0.17 -0.41,0.26 l -0.18,3.5 h 0.41 l 0.16,-3.82 z m -26.5900002,-37.17 h 0.74 l 0.06,1.82 H 9.3266248 Z m 1.3500002,0 h 0.73 l 0.07,1.82 h -0.74 l -0.06,-1.84 z m 1.34,0 h 0.73 l 0.07,1.82 h -0.73 l -0.07,-1.84 z m 10.65,0 h 0.73 v 1.82 h -0.73 z m 1.28,0 h 0.73 v 1.82 h -0.73 z m 1.34,0 h 0.73 v 1.82 h -0.69 v -1.82 z m 11.39,0 h -0.73 l -0.07,1.82 h 0.73 l 0.07,-1.84 z m 1.34,0 h -0.69 l -0.11,1.82 h 0.73 z"
     id="path14"
     style="fill:#ffffff" />
  <path
     class="cls-5"
     d="m 46.006625,48.400854 a 10,10 0 0 0 -3.25,0.24 14.12,14.12 0 0 0 -2.8,1 l -0.18,1.65 a 2.74,2.74 0 0 1 -0.22,0.48 28.48,28.48 0 0 0 3.84,1.48 8.49,8.49 0 0 1 0.83,-2 c 0.56,-1 1.27,-2 1.78,-2.9 z m -30,-26.38 c 0,-0.15 0.19,-0.2 0.35,0 a 2.51,2.51 0 0 1 0.8,1.21 c 0.12,0.52 -0.08,1.14 -0.87,2.55 a 4.64,4.64 0 0 0 -0.44,1.34 6.29,6.29 0 0 1 1.26,-1.3 2.13,2.13 0 0 0 0.5,-0.82 c 0.05,-0.3 0.23,-0.39 0.43,-0.11 a 2.39,2.39 0 0 1 0.67,2.49 c -0.46,1.28 -0.87,2 -0.64,2.77 0.07,0.21 0,0.33 -0.25,0.27 a 2,2 0 0 1 -1.38,-1.5 1.67,1.67 0 0 0 0.21,1.78 c 0.15,0.17 0.05,0.37 -0.17,0.3 a 2.45,2.45 0 0 1 -1.85,-1.53 2.25,2.25 0 0 0 0.87,2.1 c 0.28,0.22 0.14,0.41 -0.17,0.39 a 3,3 0 0 1 -1.93,-0.67 2,2 0 0 0 1.21,1.39 l 0.12,0.06 c 0.1,0.06 0.13,0.23 -0.12,0.32 a 4.34,4.34 0 0 1 -2.27,0 4.58,4.58 0 0 1 -3.1500002,-2.61 2.63,2.63 0 0 1 0.68,-3.11 5.12,5.12 0 0 1 1.8000002,-0.65 2.34,2.34 0 0 0 1.43,-1.42 3.76,3.76 0 0 1 1.47,-1.74 7.14,7.14 0 0 0 0.93,-0.61 1.86,1.86 0 0 0 0.52,-0.88 z m 3.88,8.23 c -0.49,-0.63 -1,-0.51 -1.55,0 l -1.76,1.6 v 0 l -1.75,1.61 c -0.54,0.47 -0.7,1 -0.12,1.53 -0.45,0.52 -0.62,0.86 -0.31,1.32 a 5.76,5.76 0 0 0 0.76,0.81 c 0.29,0.21 0.65,0.25 1.29,-0.24 a 0.89,0.89 0 0 0 1.41,0 l 3.24,2.86 a 21.83,21.83 0 0 0 -2.92,-0.75 7.3,7.3 0 0 0 -4,0.4 c -1.76,0.79 -2.9,1.74 -3.19,2.77 a 4.39,4.39 0 0 0 2,4.72 26.36,26.36 0 0 0 2.72,1.55 8.65,8.65 0 0 1 3.21,2.57 c 0.21,0.32 0.37,0.05 0.44,-0.1 a 4.36,4.36 0 0 0 0.12,-2.53 2.24,2.24 0 0 0 -0.52,-1.09 c -0.25,-0.3 -0.51,-0.43 -0.64,-0.77 a 2.28,2.28 0 0 1 -0.16,-1.5 c 0.33,-1.3 1.44,-1.51 2.55,-1.36 a 12.32,12.32 0 0 1 4.41,2 l 0.43,2 c 0,0.16 0.07,0.15 0.19,0.19 l 1.89,0.59 a 3.23,3.23 0 0 1 0.55,0.94 1.66,1.66 0 0 1 0,1 c -0.27,0.57 -1.59,0.59 -2.12,0.71 a 3.78,3.78 0 0 0 -0.6,0.17 1.19,1.19 0 0 0 -0.74,0.77 2.09,2.09 0 0 0 0.15,1.26 0.17,0.17 0 0 0 0.3,0.06 1.22,1.22 0 0 1 0.74,-0.65 2.13,2.13 0 0 1 1.26,0.11 7.89,7.89 0 0 0 2.55,0.86 1.65,1.65 0 0 0 1.09,-0.37 1.69,1.69 0 0 0 0.59,-0.91 5,5 0 0 0 2.18,0.71 c 0.71,0.09 1.49,0.18 2.21,0.21 0.15,0 0.21,0 0.25,0 v 0 c 0,0 0,-0.09 0,-0.24 0,-0.73 0,-1.51 0,-2.22 a 5.23,5.23 0 0 0 -0.5,-2.25 1.73,1.73 0 0 0 1.52,-1.66 8,8 0 0 0 -0.63,-2.62 2.09,2.09 0 0 1 0,-1.26 1.24,1.24 0 0 1 0.72,-0.68 0.16,0.16 0 0 0 0,-0.3 2.09,2.09 0 0 0 -1.23,-0.27 1.18,1.18 0 0 0 -0.83,0.67 2.92,2.92 0 0 0 -0.23,0.58 c -0.17,0.51 -0.39,1.86 -0.92,2 a 1.74,1.74 0 0 1 -1.09,-0.07 1.83,1.83 0 0 1 -0.81,-0.62 l -0.41,-1.95 c 0,-0.13 0,-0.16 -0.17,-0.2 l -1.92,-0.61 a 12.25,12.25 0 0 1 -1.59,-4.58 c 0,-1.12 0.27,-2.2 1.59,-2.42 a 2.34,2.34 0 0 1 1.48,0.3 c 0.33,0.16 0.43,0.43 0.7,0.71 a 2.26,2.26 0 0 0 1,0.62 4.32,4.32 0 0 0 2.54,0.11 c 0.15,-0.05 0.43,-0.19 0.13,-0.42 a 8.82,8.82 0 0 1 -2.26,-3.39 26.83,26.83 0 0 0 -1.29,-2.85 4.39,4.39 0 0 0 -4.52,-2.44 c -1,0.2 -2.1,1.25 -3,2.93 a 7.33,7.33 0 0 0 -0.76,3.91 22.12,22.12 0 0 0 0.47,3 l -2.59,-3.55 a 0.9,0.9 0 0 0 0.18,-1.4 c 0.54,-0.59 0.54,-1 0.35,-1.27 a 5.84,5.84 0 0 0 -0.73,-0.82 c -0.44,-0.35 -0.79,-0.22 -1.34,0.18 z m 3.8,-9.15 h 18.73 c -1.06,10.02 -2.16,19.9 -3.16,29.93 a 10.77,10.77 0 0 1 -4.61,4.8 17.88,17.88 0 0 1 -6.4,2 30.41,30.41 0 0 1 -3.32,0.23 h -1.23 a 30.41,30.41 0 0 1 -3.32,-0.23 17.88,17.88 0 0 1 -6.4,-2 10.77,10.77 0 0 1 -4.6100002,-4.8 c -1.06,-10.03 -2.11,-19.91 -3.21,-29.93 z m -21.1600002,27.31 c 0.51,0.91 1.19,1.9 1.78,2.87 a 7.71,7.71 0 0 1 0.85,2 28.26,28.26 0 0 0 3.79,-1.46 4.25,4.25 0 0 1 -0.21,-0.5 l -0.17,-1.58 a 12,12 0 0 0 -2.89,-1.09 9.16,9.16 0 0 0 -3.15,-0.19 z m -1.78999998,10.34 a 13.37,13.37 0 0 0 3.68999998,1.72 13,13 0 0 0 4.83,0.26 c 3.3600002,-0.37 4.6200002,-0.59 7.8700002,-1.11 a 49.56,49.56 0 0 1 7.13,-0.65 49.56,49.56 0 0 1 7.19,0.65 c 3.25,0.52 4.51,0.74 7.87,1.11 a 12.92,12.92 0 0 0 4.78,-0.26 13.43,13.43 0 0 0 3.7,-1.72 28.26,28.26 0 0 1 -1.72,5.66 10.45,10.45 0 0 1 -1.18,1.86 5.82,5.82 0 0 1 -2.8,1.5 11.93,11.93 0 0 1 -5,0.06 c -1.2,-0.32 -2.56,-0.55 -4,-0.86 a 45.53,45.53 0 0 0 -5.69,-0.68 c -1,-0.06 -2,-0.1 -3,-0.11 h -0.15 c -1,0 -2,0 -3,0.11 a 45.53,45.53 0 0 0 -5.69,0.68 c -1.47,0.31 -2.85,0.54 -4.06,0.86 a 13.67,13.67 0 0 1 -5.0900002,-0.06 4.84,4.84 0 0 1 -2.71,-1.46 11,11 0 0 1 -1.45,-2.24 26.83,26.83 0 0 1 -1.51999998,-5.32 z"
     id="path16"
     style="fill:#ffffff" />
  <path
     class="cls-8"
     d="m 42.666625,0.67085422 c -1.48,0.45999998 -3.34,0.1 -4.08,1.99999998 a 11,11 0 0 1 -1,1.79 1.84,1.84 0 0 1 -0.72,0.62 c -1.14,0.63 -3.41,1.38 -3.6,2.66 a 3.5,3.5 0 0 0 1.24,3.4299998 3.59,3.59 0 0 1 0.75,-3.0999998 c 0.18,-0.29 0.44,-0.12 0.43,0.07 a 3.79,3.79 0 0 0 0.45,2.3899998 5.8,5.8 0 0 1 2.31,-4.4499998 c 0.29,-0.15 0.4,0.13 0.3,0.27 a 10.06,10.06 0 0 0 -0.34,1 4.9,4.9 0 0 0 0.22,3.1299998 4.12,4.12 0 0 1 2,-2.5799998 c 0.32,-0.2 0.44,0.15 0.3,0.32 -0.51,1 -0.91,2.4299998 -0.39,3.1899998 1.1,-0.26 1,-1.16 1.22,-2.1299998 a 6.51,6.51 0 0 1 1,-2 c 0.35,-0.94 0.14,-1.5 -0.08,-2.78 a 3.27,3.27 0 0 1 -2.49,2 c -0.4,0.07 -0.7,0 -0.42,-0.39 a 6,6 0 0 0 1.12,-2 7.59,7.59 0 0 1 1.79,-3.47999998 z m -27,0 c -1.48,0.45999998 -3.34,0.1 -4.08,1.99999998 a 11.77,11.77 0 0 1 -1,1.79 2,2 0 0 1 -0.7300002,0.62 c -1.13,0.63 -3.4,1.38 -3.59,2.66 a 3.48,3.48 0 0 0 1.24,3.4299998 3.58,3.58 0 0 1 0.74,-3.0799998 c 0.19,-0.29 0.45,-0.12 0.43,0.07 a 3.87,3.87 0 0 0 0.48,2.3699998 5.77,5.77 0 0 1 2.3100002,-4.4499998 c 0.28,-0.15 0.39,0.13 0.3,0.27 a 7.9,7.9 0 0 0 -0.34,1 4.9,4.9 0 0 0 0.21,3.1299998 4.19,4.19 0 0 1 2,-2.5799998 c 0.33,-0.2 0.45,0.15 0.3,0.32 -0.5,1 -0.9,2.4299998 -0.38,3.1899998 1.1,-0.26 1,-1.16 1.21,-2.1299998 a 6.66,6.66 0 0 1 1,-2 c 0.34,-0.94 0.13,-1.5 -0.08,-2.78 a 3.29,3.29 0 0 1 -2.49,2 c -0.41,0.07 -0.7,0 -0.42,-0.39 a 5.82,5.82 0 0 0 1.11,-2 7.61,7.61 0 0 1 1.8,-3.47999998 z m 13.33,0 c -1.49,0.45999998 -3.35,0.1 -4.08,1.99999998 a 12.73,12.73 0 0 1 -1,1.79 2,2 0 0 1 -0.73,0.62 c -1.14,0.63 -3.4,1.38 -3.6,2.66 a 3.51,3.51 0 0 0 1.25,3.4299998 3.55,3.55 0 0 1 0.74,-3.0799998 c 0.19,-0.29 0.45,-0.12 0.43,0.07 a 3.74,3.74 0 0 0 0.48,2.3699998 5.77,5.77 0 0 1 2.31,-4.4499998 c 0.28,-0.15 0.39,0.13 0.3,0.27 a 6.5,6.5 0 0 0 -0.34,1 4.83,4.83 0 0 0 0.21,3.1299998 4.19,4.19 0 0 1 2,-2.5799998 c 0.33,-0.2 0.44,0.15 0.3,0.32 -0.5,1 -0.9,2.4299998 -0.38,3.1899998 1.1,-0.26 1,-1.16 1.21,-2.1299998 a 6.39,6.39 0 0 1 1,-2 c 0.34,-0.94 0.13,-1.5 -0.08,-2.78 a 3.31,3.31 0 0 1 -2.5,2 c -0.4,0.07 -0.69,0 -0.41,-0.39 a 5.82,5.82 0 0 0 1.11,-2 7.61,7.61 0 0 1 1.8,-3.43999998 z"
     id="path22"
     style="fill:#ffffff" />
  <metadata
     id="metadata846">
    <rdf:RDF>
      <cc:Work
         rdf:about="">
        <dc:title>Brasão e monograma - Arquivo Ai</dc:title>
      </cc:Work>
    </rdf:RDF>
  </metadata>
</svg>
